<mxfile host="app.diagrams.net" agent="Mozilla/5.0 (Windows NT 10.0; Win64; x64) AppleWebKit/537.36 (KHTML, like Gecko) Chrome/138.0.0.0 Safari/537.36" version="24.8.3">
  <diagram name="第 1 页" id="WHuSsXuLQG52UjphW0Mo">
    <mxGraphModel dx="1050" dy="565" grid="1" gridSize="10" guides="1" tooltips="1" connect="1" arrows="1" fold="1" page="1" pageScale="1" pageWidth="827" pageHeight="1169" math="0" shadow="0">
      <root>
        <mxCell id="0" />
        <mxCell id="1" parent="0" />
        <mxCell id="2kV6h25K0Nqf1A58Xm7x-3" value="" style="edgeStyle=orthogonalEdgeStyle;rounded=0;orthogonalLoop=1;jettySize=auto;html=1;" edge="1" parent="1" source="2kV6h25K0Nqf1A58Xm7x-1" target="2kV6h25K0Nqf1A58Xm7x-2">
          <mxGeometry relative="1" as="geometry" />
        </mxCell>
        <mxCell id="2kV6h25K0Nqf1A58Xm7x-20" value="WEB" style="edgeLabel;html=1;align=center;verticalAlign=middle;resizable=0;points=[];" vertex="1" connectable="0" parent="2kV6h25K0Nqf1A58Xm7x-3">
          <mxGeometry x="-0.1" y="10" relative="1" as="geometry">
            <mxPoint x="1" as="offset" />
          </mxGeometry>
        </mxCell>
        <mxCell id="2kV6h25K0Nqf1A58Xm7x-1" value="&lt;span style=&quot;text-wrap-mode: nowrap;&quot;&gt;user_input:&lt;/span&gt;&lt;div style=&quot;text-wrap-mode: nowrap;&quot;&gt;agent_name&lt;/div&gt;&lt;div style=&quot;text-wrap-mode: nowrap;&quot;&gt;msg&amp;nbsp;&lt;/div&gt;&lt;div style=&quot;text-wrap-mode: nowrap;&quot;&gt;log file&lt;/div&gt;" style="rounded=1;whiteSpace=wrap;html=1;fillColor=#dae8fc;strokeColor=#6c8ebf;" vertex="1" parent="1">
          <mxGeometry x="320" y="80" width="120" height="60" as="geometry" />
        </mxCell>
        <mxCell id="2kV6h25K0Nqf1A58Xm7x-7" value="" style="edgeStyle=orthogonalEdgeStyle;rounded=0;orthogonalLoop=1;jettySize=auto;html=1;" edge="1" parent="1" source="2kV6h25K0Nqf1A58Xm7x-2" target="2kV6h25K0Nqf1A58Xm7x-6">
          <mxGeometry relative="1" as="geometry" />
        </mxCell>
        <mxCell id="2kV6h25K0Nqf1A58Xm7x-2" value="server" style="rounded=1;whiteSpace=wrap;html=1;fillColor=#ffe6cc;strokeColor=#d79b00;" vertex="1" parent="1">
          <mxGeometry x="320" y="220" width="120" height="60" as="geometry" />
        </mxCell>
        <mxCell id="2kV6h25K0Nqf1A58Xm7x-18" style="edgeStyle=orthogonalEdgeStyle;rounded=0;orthogonalLoop=1;jettySize=auto;html=1;entryX=0;entryY=0.5;entryDx=0;entryDy=0;" edge="1" parent="1" source="2kV6h25K0Nqf1A58Xm7x-6" target="2kV6h25K0Nqf1A58Xm7x-1">
          <mxGeometry relative="1" as="geometry">
            <Array as="points">
              <mxPoint x="250" y="390" />
              <mxPoint x="250" y="110" />
            </Array>
          </mxGeometry>
        </mxCell>
        <mxCell id="2kV6h25K0Nqf1A58Xm7x-6" value="agents" style="rounded=1;whiteSpace=wrap;html=1;fillColor=#fff2cc;strokeColor=#d6b656;" vertex="1" parent="1">
          <mxGeometry x="320" y="360" width="120" height="60" as="geometry" />
        </mxCell>
        <mxCell id="2kV6h25K0Nqf1A58Xm7x-11" value="log tools" style="rounded=1;whiteSpace=wrap;html=1;fillColor=#e1d5e7;strokeColor=#9673a6;" vertex="1" parent="1">
          <mxGeometry x="520" y="360" width="120" height="60" as="geometry" />
        </mxCell>
        <mxCell id="2kV6h25K0Nqf1A58Xm7x-16" value="" style="endArrow=classic;startArrow=classic;html=1;rounded=0;entryX=0;entryY=0.5;entryDx=0;entryDy=0;exitX=1;exitY=0.5;exitDx=0;exitDy=0;" edge="1" parent="1" source="2kV6h25K0Nqf1A58Xm7x-6" target="2kV6h25K0Nqf1A58Xm7x-11">
          <mxGeometry width="50" height="50" relative="1" as="geometry">
            <mxPoint x="390" y="520" as="sourcePoint" />
            <mxPoint x="440" y="470" as="targetPoint" />
          </mxGeometry>
        </mxCell>
        <mxCell id="2kV6h25K0Nqf1A58Xm7x-17" value="http" style="text;html=1;align=center;verticalAlign=middle;resizable=0;points=[];autosize=1;strokeColor=none;fillColor=none;" vertex="1" parent="1">
          <mxGeometry x="456" y="365" width="40" height="30" as="geometry" />
        </mxCell>
        <mxCell id="2kV6h25K0Nqf1A58Xm7x-19" value="stream" style="text;html=1;align=center;verticalAlign=middle;resizable=0;points=[];autosize=1;strokeColor=none;fillColor=none;" vertex="1" parent="1">
          <mxGeometry x="200" y="218" width="60" height="30" as="geometry" />
        </mxCell>
      </root>
    </mxGraphModel>
  </diagram>
</mxfile>
